name D:\school\WTK\thesis\model\3dpredictsim\Results\debug_batch\Pog_s1_tmt_bCst_d00_k800_ig24.mot
datacolumns 128
datarows 4
range 1.08032343 1.11273313
endheader
time	pelvis_tilt	pelvis_list	pelvis_rotation	pelvis_tx	pelvis_ty	pelvis_tz	hip_flexion_l	hip_adduction_l	hip_rotation_l	hip_flexion_r	hip_adduction_r	hip_rotation_r	knee_angle_l	knee_angle_r	ankle_angle_l	ankle_angle_r	subtalar_angle_l	subtalar_angle_r	tmt_angle_l	tmt_angle_r	mtp_angle_l	mtp_angle_r	lumbar_extension	lumbar_bending	lumbar_rotation	arm_flex_l	arm_add_l	arm_rot_l	arm_flex_r	arm_add_r	arm_rot_r	elbow_flex_l	elbow_flex_r	pro_sup_l	pro_sup_r	glut_med1_l/activation	glut_med2_l/activation	glut_med3_l/activation	glut_min1_l/activation	glut_min2_l/activation	glut_min3_l/activation	semimem_l/activation	semiten_l/activation	bifemlh_l/activation	bifemsh_l/activation	sar_l/activation	add_long_l/activation	add_brev_l/activation	add_mag1_l/activation	add_mag2_l/activation	add_mag3_l/activation	tfl_l/activation	pect_l/activation	grac_l/activation	glut_max1_l/activation	glut_max2_l/activation	glut_max3_l/activation	iliacus_l/activation	psoas_l/activation	quad_fem_l/activation	gem_l/activation	peri_l/activation	rect_fem_l/activation	vas_med_l/activation	vas_int_l/activation	vas_lat_l/activation	med_gas_l/activation	lat_gas_l/activation	soleus_l/activation	tib_post_l/activation	flex_dig_l/activation	flex_hal_l/activation	tib_ant_l/activation	per_brev_l/activation	per_long_l/activation	per_tert_l/activation	ext_dig_l/activation	ext_hal_l/activation	ercspn_l/activation	intobl_l/activation	extobl_l/activation	glut_med1_r/activation	glut_med2_r/activation	glut_med3_r/activation	glut_min1_r/activation	glut_min2_r/activation	glut_min3_r/activation	semimem_r/activation	semiten_r/activation	bifemlh_r/activation	bifemsh_r/activation	sar_r/activation	add_long_r/activation	add_brev_r/activation	add_mag1_r/activation	add_mag2_r/activation	add_mag3_r/activation	tfl_r/activation	pect_r/activation	grac_r/activation	glut_max1_r/activation	glut_max2_r/activation	glut_max3_r/activation	iliacus_r/activation	psoas_r/activation	quad_fem_r/activation	gem_r/activation	peri_r/activation	rect_fem_r/activation	vas_med_r/activation	vas_int_r/activation	vas_lat_r/activation	med_gas_r/activation	lat_gas_r/activation	soleus_r/activation	tib_post_r/activation	flex_dig_r/activation	flex_hal_r/activation	tib_ant_r/activation	per_brev_r/activation	per_long_r/activation	per_tert_r/activation	ext_dig_r/activation	ext_hal_r/activation	ercspn_r/activation	intobl_r/activation	extobl_r/activation	
          1.08032343	         -2.92924566	         -2.17603265	          5.41521052	          1.35040429	          0.85830888	         -0.00214440	        -17.74245404	         -1.69080823	          7.22805853	         31.74296796	          3.10740650	         -1.99359468	         -7.93536027	        -15.64071336	         -0.13780737	          6.24367764	         11.32692397	         -1.74151733	          2.16421909	          0.04566840	         21.73948131	         -0.11507071	         -1.91513837	          0.62833701	         -1.85202670	          6.44382475	        -13.45439973	         15.93873756	         -8.68669062	        -13.53991368	          5.78493319	         36.79297814	         15.82958465	         86.51662706	         86.51662706	          0.30887271	          0.10601734	          0.07513927	          0.33262423	          0.22168176	          0.11041782	          0.05000195	          0.05000033	          0.05000021	          0.07546597	          0.11048010	          0.05351623	          0.05000081	          0.05000068	          0.05000147	          0.05000090	          0.31196176	          0.05001171	          0.05000078	          0.05000392	          0.05000228	          0.05000133	          0.35194892	          0.57643969	          0.05000018	          0.05000062	          0.05000042	          0.19088662	          0.07524095	          0.05001572	          0.05002310	          0.30588315	          0.41554543	          0.30193430	          0.25605860	          0.26681556	          0.33994920	          0.05000006	          0.06962540	          0.17299187	          0.05000053	          0.05000013	          0.05000035	          0.05000004	          0.05000003	          0.05000007	          0.05000047	          0.05000057	          0.05442002	          0.05000044	          0.05000055	          0.05000146	          0.05900265	          0.05900252	          0.15327830	          0.05000102	          0.05000461	          0.10591133	          0.16552444	          0.18197555	          0.16102960	          0.10186170	          0.05899994	          0.05015894	          0.05900450	          0.05029791	          0.06962584	          0.10367487	          0.05000053	          0.05000072	          0.22361366	          0.05270554	          0.05000260	          0.05000083	          0.11725399	          0.12199963	          0.10076416	          0.05900249	          0.05227137	          0.05900266	          0.05000013	          0.05000184	          0.05000262	          0.49804719	          0.35034561	          0.20451853	          0.26409430	          0.55087002	          0.21811546	          0.06328016	          0.10572752	          0.10748720	
          1.09112666	         -2.92328354	         -2.27375884	          5.68330140	          1.36665508	          0.85729713	         -0.00193790	        -17.53476607	         -1.98754675	          6.99557249	         31.09961917	          3.49931139	         -1.79353696	         -9.97246668	        -15.47244358	         -0.93054536	          5.65386142	         12.30551519	         -2.22466419	          1.85664689	          0.05181289	         22.83157095	         -0.09973131	         -1.71980114	          0.85996652	         -1.92677620	          6.25444486	        -13.46533483	         16.19544504	         -9.69015593	        -13.53411235	          5.62750375	         37.87713210	         15.65940897	         86.51662706	         86.51662706	          0.26174470	          0.08984115	          0.06412539	          0.28187227	          0.18785743	          0.09357025	          0.05001670	          0.05000150	          0.05000439	          0.06395134	          0.09362338	          0.14156953	          0.10487458	          0.06962783	          0.06132051	          0.06961190	          0.26436255	          0.06863245	          0.05017050	          0.05000795	          0.05000532	          0.05000878	          0.29824828	          0.51377564	          0.05193524	          0.06962034	          0.05900324	          0.16176100	          0.06376452	          0.15931982	          0.15771887	          0.25921118	          0.35214110	          0.25586486	          0.21698914	          0.22610532	          0.28807985	          0.05000003	          0.05900201	          0.14661647	          0.05000014	          0.05000003	          0.05000019	          0.05000009	          0.06962640	          0.05000012	          0.05000088	          0.05000103	          0.05000035	          0.05000173	          0.05000142	          0.05000068	          0.05000010	          0.05000024	          0.12989107	          0.05000024	          0.05000269	          0.08975268	          0.14026931	          0.29200480	          0.19863108	          0.08632322	          0.05000037	          0.05000752	          0.05000224	          0.05900163	          0.05900292	          0.10728439	          0.05000065	          0.05000214	          0.54140198	          0.12635671	          0.08904875	          0.06962675	          0.22117481	          0.22284303	          0.19025852	          0.05000002	          0.05000005	          0.05000000	          0.05252740	          0.06962532	          0.05979538	          0.57158233	          0.34699430	          0.21424921	          0.43961634	          0.58519546	          0.21775759	          0.05362483	          0.08959551	          0.09108670	
          1.10192990	         -2.91315277	         -2.37167935	          5.92696283	          1.38319626	          0.85625503	         -0.00174862	        -17.25473675	         -2.27550878	          6.75083176	         30.30131886	          3.82834722	         -1.52138657	        -12.13281727	        -15.77524063	         -1.89014043	          5.07937585	         13.21596082	         -2.73684572	          1.54186613	         -0.04264497	         23.75806864	         -0.15150378	         -1.50317032	          1.09817294	         -1.99122169	          5.98572611	        -13.47585836	         16.39003373	        -10.70848388	        -13.53290703	          5.51587353	         38.92565329	         15.52266097	         86.51662706	         86.51662706	          0.36923143	          0.07613313	          0.05434140	          0.23886440	          0.15919408	          0.07929328	          0.05000378	          0.05000082	          0.05000073	          0.05419366	          0.07933890	          0.15688014	          0.17505770	          0.05900512	          0.05899747	          0.05899183	          0.22402683	          0.08382440	          0.05638634	          0.05025183	          0.05251822	          0.05899739	          0.25274151	          0.48657414	          0.05900257	          0.05899826	          0.05000058	          0.13707937	          0.09524469	          0.13501104	          0.13365430	          0.21966046	          0.29841105	          0.21682472	          0.18388075	          0.19160614	          0.24412446	          0.05000017	          0.05000062	          0.19246297	          0.05000023	          0.05000133	          0.05000049	          0.05773508	          0.05900274	          0.05755600	          0.29261816	          0.05000024	          0.30944853	          0.05000080	          0.05000059	          0.27586882	          0.08797888	          0.05000142	          0.13171174	          0.05000039	          0.05000143	          0.08216364	          0.20299406	          0.24745083	          0.16832544	          0.11957693	          0.05000139	          0.06646976	          0.13615083	          0.05000023	          0.05000035	          0.09091503	          0.05900274	          0.05219454	          0.45879434	          0.10707724	          0.16743606	          0.05900305	          0.18742780	          0.18884150	          0.16122874	          0.05900241	          0.05900246	          0.05900265	          0.05900236	          0.05900222	          0.05900254	          0.48436985	          0.33892185	          0.18155903	          0.37254505	          0.61982240	          0.18453200	          0.05000013	          0.10048690	          0.07718861	
          1.11273313	         -2.90073392	         -2.46796858	          6.13791349	          1.39985111	          0.85519267	         -0.00154757	        -16.88255595	         -2.55106741	          6.50543250	         29.36719732	          4.11829382	         -1.24127479	        -14.43053887	        -16.07628674	         -2.96293498	          4.66548912	         14.05314646	         -3.26252755	          1.18761385	         -0.02372267	         24.42238121	         -0.15661453	         -1.28340599	          1.33899737	         -2.04640314	          5.66347500	        -13.49191761	         16.53666522	        -11.69516360	        -13.53541931	          5.46863590	         39.92694425	         15.38932582	         86.51662706	         86.51662706	          0.31289424	          0.06451670	          0.05000007	          0.29611877	          0.13490423	          0.06719472	          0.05000567	          0.05000022	          0.05000019	          0.05000034	          0.06723529	          0.16186657	          0.14834775	          0.05000240	          0.05000117	          0.05000072	          0.18984689	          0.07103918	          0.05000066	          0.05000131	          0.05000081	          0.05000050	          0.21417805	          0.43813744	          0.05000012	          0.05000051	          0.05000031	          0.11616370	          0.10106521	          0.11441253	          0.11441259	          0.18614444	          0.25287919	          0.18374138	          0.15582409	          0.16237087	          0.20687584	          0.11208529	          0.15043758	          0.16309720	          0.07114725	          0.17287536	          0.05000375	          0.08870629	          0.05000005	          0.05000006	          0.34531282	          0.29954703	          0.37473122	          0.17712485	          0.18192769	          0.23377715	          0.07455523	          0.11580414	          0.11161515	          0.08215811	          0.05000397	          0.06962710	          0.17202107	          0.20969507	          0.14265327	          0.15174254	          0.05000046	          0.05632842	          0.11537842	          0.22581025	          0.16943535	          0.13447419	          0.05000024	          0.05000019	          0.38879113	          0.09073978	          0.14188901	          0.05000034	          0.15883610	          0.22401754	          0.16819015	          0.05000007	          0.05000012	          0.05000001	          0.05000001	          0.05000062	          0.05000031	          0.61120633	          0.37356473	          0.18736078	          0.63524613	          0.66239501	          0.33852924	          0.07209136	          0.08515455	          0.06541110	
